{"title":"Pacific Rim 2013 HDCAM NEW SOURCE XViD-SAF","uid":8808449,"size":1477757281,"categoryP":"video","categoryS":"movies","magnet":"?xt=urn:btih:e7c14a35a8c3d0a5ae371903960b6382c893f5ae&amp;dn=Pacific+Rim+2013+HDCAM+NEW+SOURCE+XViD-SAF&amp;tr=udp%3A%2F%2Ftracker.openbittorrent.com%3A80&amp;tr=udp%3A%2F%2Fopen.demonii.com%3A1337&amp;tr=udp%3A%2F%2Ftracker.coppersurfer.tk%3A6969&amp;tr=udp%3A%2F%2Fexodus.desync.com%3A6969","seeders":1,"leechers":0,"uploader":"srkfan","files":3,"time":1376394138,"description":"[b]SilverTorrent - Clean And Verified Torrents Download[/b]\n\n------------------------------------------------------\n &lt;a href=&quot;\nhttp://img12.imageshack.us/img12/9238/0kt7.jpg&quot; rel=&quot;nofollow&quot; target=&quot;_NEW&quot;&gt;\nhttp://img12.imageshack.us/img12/9238/0kt7.jpg&lt;/a&gt;\n\nPacific Rim (2013) HDCAM NEW SOURCE XViD - SAF\n\nInfo:\nFormat : AVI\nFormat/Info : Audio Video Interleave\nFile size : 1.37 GiB\nDuration : 2h 1mn\nOverall bit rate : 1 611 Kbps\nWriting application : VirtualDubMod 1.5.10.2 (build 2540/release)\nWriting library : VirtualDubMod build 2540/release\n\nVideo\nID : 0\nFormat : MPEG-4 Visual\nFormat profile : Advanced Simple@L5\nFormat settings, BVOP : 2\nFormat settings, QPel : No\nFormat settings, GMC : No warppoints\nFormat settings, Matrix : Default (H.263)\nMuxing mode : Packed bitstream\nCodec ID : XVID\nCodec ID/Hint : XviD\nDuration : 2h 1mn\nBit rate : 1 478 Kbps\nWidth : 704 pixels\nHeight : 320 pixels\nDisplay aspect ratio : 2.2:1\nFrame rate : 29.970 fps\nColor space : YUV\nChroma subsampling : 4:2:0\nBit depth : 8 bits\nScan type : Progressive\nCompression mode : Lossy\nBits/(Pixel*Frame) : 0.219\nStream size : 1.25 GiB (92%)\nWriting library : XviD 64\n\nAudio\nID : 1\nFormat : MPEG Audio\nFormat version : Version 1\nFormat profile : Layer 3\nCodec ID : 55\nCodec ID/Hint : MP3\nDuration : 1h 54mn\nBit rate mode : Constant\nBit rate : 128 Kbps\nChannel(s) : 2 channels\nSampling rate : 48.0 KHz\nCompression mode : Lossy\nStream size : 105 MiB (8%)\nAlignment : Aligned on interleaves\nInterleave, duration : 35 ms (1.06 video frame)\nInterleave, preload duration : 504 ms\nWriting library : LAME3.98.4\n\nSource:\nAudio...SmY Thanks :)\nVideo...SmY Thanks :)\n &lt;a href=&quot;\nhttp://img593.imageshack.us/img593/6821/iii4.png&quot; rel=&quot;nofollow&quot; target=&quot;_NEW&quot;&gt;\nhttp://img593.imageshack.us/img593/6821/iii4.png&lt;/a&gt; &lt;a href=&quot;\nhttp://img268.imageshack.us/img268/685/mtsy.png&quot; rel=&quot;nofollow&quot; target=&quot;_NEW&quot;&gt;\nhttp://img268.imageshack.us/img268/685/mtsy.png&lt;/a&gt; &lt;a href=&quot;\nhttp://img577.imageshack.us/img577/9439/klg5.png&quot; rel=&quot;nofollow&quot; target=&quot;_NEW&quot;&gt;\nhttp://img577.imageshack.us/img577/9439/klg5.png&lt;/a&gt; &lt;a href=&quot;\nhttp://img203.imageshack.us/img203/1985/d49o.png&quot; rel=&quot;nofollow&quot; target=&quot;_NEW&quot;&gt;\nhttp://img203.imageshack.us/img203/1985/d49o.png&lt;/a&gt; &lt;a href=&quot;\nhttp://img194.imageshack.us/img194/2573/yck2.png&quot; rel=&quot;nofollow&quot; target=&quot;_NEW&quot;&gt;\nhttp://img194.imageshack.us/img194/2573/yck2.png&lt;/a&gt;","torrent":{"xt":"urn:btih:e7c14a35a8c3d0a5ae371903960b6382c893f5ae","amp;dn":"Pacific+Rim+2013+HDCAM+NEW+SOURCE+XViD-SAF","amp;tr":["udp%3A%2F%2Ftracker.openbittorrent.com%3A80","udp%3A%2F%2Fopen.demonii.com%3A1337","udp%3A%2F%2Ftracker.coppersurfer.tk%3A6969","udp%3A%2F%2Fexodus.desync.com%3A6969"],"infoHash":"e7c14a35a8c3d0a5ae371903960b6382c893f5ae","infoHashBuffer":{"type":"Buffer","data":[231,193,74,53,168,195,208,165,174,55,25,3,150,11,99,130,200,147,245,174]},"announce":[],"urlList":[]}}